<?xml version="1.0" encoding="utf-8"?>
<!-- Generator: Adobe Illustrator 27.2.0, SVG Export Plug-In . SVG Version: 6.00 Build 0)  -->
<!DOCTYPE svg PUBLIC "-//W3C//DTD SVG 1.1//EN" "http://www.w3.org/Graphics/SVG/1.1/DTD/svg11.dtd" [
	<!ENTITY ns_extend "http://ns.adobe.com/Extensibility/1.0/">
	<!ENTITY ns_ai "http://ns.adobe.com/AdobeIllustrator/10.0/">
	<!ENTITY ns_graphs "http://ns.adobe.com/Graphs/1.0/">
	<!ENTITY ns_vars "http://ns.adobe.com/Variables/1.0/">
	<!ENTITY ns_imrep "http://ns.adobe.com/ImageReplacement/1.0/">
	<!ENTITY ns_sfw "http://ns.adobe.com/SaveForWeb/1.0/">
	<!ENTITY ns_custom "http://ns.adobe.com/GenericCustomNamespace/1.0/">
	<!ENTITY ns_adobe_xpath "http://ns.adobe.com/XPath/1.0/">
]>
<svg version="1.1" id="Layer_1" xmlns:x="&ns_extend;" xmlns:i="&ns_ai;" xmlns:graph="&ns_graphs;"
	 xmlns="http://www.w3.org/2000/svg" xmlns:xlink="http://www.w3.org/1999/xlink" x="0px" y="0px" viewBox="0 0 100 100"
	 style="enable-background:new 0 0 100 100;" xml:space="preserve">
<style type="text/css">
	.Drop_x0020_Shadow{fill:none;}
	.Outer_x0020_Glow_x0020_5_x0020_pt{fill:none;}
	.Blue_x0020_Neon{fill:none;stroke:#8AACDA;stroke-width:7;stroke-linecap:round;stroke-linejoin:round;}
	.Chrome_x0020_Highlight{fill:url(#SVGID_1_);stroke:#FFFFFF;stroke-width:0.3629;stroke-miterlimit:1;}
	.Jive_GS{fill:#FFDD00;}
	.Alyssa_GS{fill:#A6D0E4;}
	.st0{fill:#E57310;}
</style>
<metadata>
	<sfw  xmlns="&ns_sfw;">
		<slices></slices>
		<sliceSourceBounds  bottomLeftOrigin="true" height="96" width="96" x="1.7" y="-98"></sliceSourceBounds>
	</sfw>
</metadata>
<linearGradient id="SVGID_1_" gradientUnits="userSpaceOnUse" x1="0" y1="0" x2="6.123234e-17" y2="-1">
	<stop  offset="0" style="stop-color:#656565"/>
	<stop  offset="0.618" style="stop-color:#1B1B1B"/>
	<stop  offset="0.6292" style="stop-color:#545454"/>
	<stop  offset="0.9831" style="stop-color:#3E3E3E"/>
</linearGradient>
<g>
	<path class="st0" d="M52,2c1.5,0.2,3,0.3,4.5,0.5c8.6,1.2,16.3,4.6,23.2,10c0,0,0.1,0.1,0.1,0.1c-2.8,2.8-5.6,5.6-8.4,8.4
		c-14.3-9.4-28.7-9.4-43.1-0.1c-2.8-2.8-5.6-5.6-8.6-8.6c2.4-1.5,4.8-3.2,7.3-4.6c4.6-2.6,9.6-4.2,14.8-5.1c1.9-0.3,3.8-0.5,5.7-0.7
		C49,2,50.5,2,52,2z"/>
	<path class="st0" d="M97.8,52.3c-0.2,1.5-0.3,3.1-0.5,4.6c-0.8,5.9-2.7,11.5-5.7,16.6c-1.3,2.2-2.8,4.3-4.2,6.5
		c-2.9-2.9-5.8-5.8-8.5-8.6c9.3-14.2,9.3-28.5,0.1-42.8c2.8-2.8,5.6-5.6,8.5-8.5c0.8,1.1,1.7,2.2,2.5,3.4c3.7,5.6,6.1,11.8,7.2,18.4
		c0.3,1.9,0.5,3.8,0.7,5.7C97.8,49.3,97.8,50.8,97.8,52.3z"/>
	<path class="st0" d="M20.7,28.5c-9.4,14.3-9.3,28.7,0.1,43.1c-2.8,2.8-5.6,5.6-8.4,8.4C-0.8,64.5-2.8,38.6,12.2,20.1
		C15.1,22.9,17.9,25.7,20.7,28.5z"/>
	<path class="st0" d="M71.2,78.9c2.9,2.9,5.7,5.6,8.5,8.4c-14.6,12.7-40.8,15.5-59.7,0.3c2.8-2.8,5.6-5.6,8.5-8.5
		C34.8,83.7,42,86,49.9,86C57.8,86,64.9,83.5,71.2,78.9z"/>
</g>
<path class="st0" d="M50.4,22.1c-15.2-0.4-27.9,11.6-28.5,27c-0.6,15.2,11.5,28.2,26.9,28.8c15.5,0.6,28.3-11.5,28.9-27.3
	C77.9,35.4,66.1,22.5,50.4,22.1z M36.7,55.4c-2.9-0.1-5.2-2.5-5-5.4c0.1-2.9,2.5-5.1,5.3-5.1c2.9,0.1,5.2,2.5,5.1,5.3
	C42,53.2,39.6,55.5,36.7,55.4z M49.7,55.4c-2.9-0.1-5.2-2.5-5-5.4c0.1-2.9,2.5-5.1,5.3-5.1c2.9,0.1,5.2,2.5,5.1,5.3
	C55,53.2,52.6,55.5,49.7,55.4z M62.4,55.4c-2.9-0.1-5.2-2.5-5-5.4c0.1-2.9,2.5-5.1,5.3-5.1c2.9,0.1,5.2,2.5,5.1,5.3
	C67.7,53.2,65.3,55.5,62.4,55.4z"/>
<polygon class="st0" points="36.9,63 48.7,74.2 25.7,74.2 25.7,51.2 "/>
</svg>
